<?xml version="1.0" standalone="no"?><!DOCTYPE svg PUBLIC "-//W3C//DTD SVG 1.1//EN" "http://www.w3.org/Graphics/SVG/1.1/DTD/svg11.dtd"><svg t="1659880284301" class="icon" viewBox="0 0 1024 1024" version="1.1" xmlns="http://www.w3.org/2000/svg" p-id="665" xmlns:xlink="http://www.w3.org/1999/xlink" width="200" height="200"><defs><style type="text/css">@font-face { font-family: feedback-iconfont; src: url("//at.alicdn.com/t/font_1031158_u69w8yhxdu.woff2?t=1630033759944") format("woff2"), url("//at.alicdn.com/t/font_1031158_u69w8yhxdu.woff?t=1630033759944") format("woff"), url("//at.alicdn.com/t/font_1031158_u69w8yhxdu.ttf?t=1630033759944") format("truetype"); }
</style></defs><path d="M512 960C759.04 960 960 759.04 960 512s-200.96-448-448-448-448 200.96-448 448S264.96 960 512 960z m-149.76-471.968L522.494 329.537c6.23999999-6.145 14.369-9.248 22.497-9.248 8.255 0 16.512 3.169 22.751 9.504 12.41600001 12.576 12.32 32.8-0.25599999 45.248l-137.40800001 135.905 136.288 136.671c12.48 12.513 12.447 32.768-0.064 45.248-12.512 12.513-32.768 12.448-45.248-0.063l-158.912-159.36c-0.033-0.032-0.033-0.063-0.063-0.096s-0.064-0.033-0.097-0.064c-2.943-2.976-5.055-6.432-6.592-10.047-0.063-0.128-0.223-0.257-0.256-0.384-4.736-11.618-2.367-25.44299999 7.104-34.819z" p-id="666"></path></svg>